<svg role="img" viewBox="0 0 24 24" xmlns="http://www.w3.org/2000/svg"><title>NumPy</title><path fill="#013243" d="M12.037.674a3.721 3.721 0 0 0-1.676.416L2.526 4.927A3.722 3.722 0 0 0 .45 8.046v7.914a3.722 3.722 0 0 0 2.076 3.119l7.835 3.837a3.722 3.722 0 0 0 3.352 0l7.835-3.837a3.722 3.722 0 0 0 2.076-3.119V8.046a3.722 3.722 0 0 0-2.076-3.119l-7.835-3.837a3.721 3.721 0 0 0-1.676-.416zm-.088 1.823c.366-.007.729.08 1.054.275l7.834 4.518c.327.197.522.522.522.867v9.035c0 .345-.195.67-.522.867l-7.834 4.518c-.65.385-1.458.385-2.108 0l-7.834-4.518c-.327-.197-.522-.522-.522-.867V8.157c0-.345.195-.67.522-.867l7.834-4.518c.325-.195.688-.283 1.054-.275zm.791 2.823-1.52.913 1.725 1.06 1.556-.923zm2.297 1.429-1.725.994v2.118l1.725-1.01zm-4.45.1-1.725 1.034v2.118l1.725-1.01zm1.725 1.525L10.587 9.4l1.725 1.043 1.725-1.01zm-3.45.337L7.137 9.737l1.725 1.043 1.725-1.01zM15.037 9.4l-1.725.994v2.118l1.725-1.01zm-6.9.337-1.725.994v2.118l1.725-1.01zm3.45.793-1.725.994v2.118l1.725-1.01zm3.45.066-1.725.994v2.118l1.725-1.01zm-6.9.727-1.725.994v2.118l1.725-1.01zm3.45.463-1.725.994v2.118l1.725-1.01zm3.45.066-1.725.994v2.118l1.725-1.01z"/></svg>